HIERARCHY
ROOT Hips
{
	OFFSET 0.00000 0.00000 0.00000
	CHANNELS 6 Xposition Yposition Zposition Yrotation Zrotation Xrotation 
	JOINT Lumbar
	{
		OFFSET 0 0 0
		CHANNELS 3 Zrotation Xrotation Yrotation
		JOINT Neck
		{
			OFFSET 0.00 0.2701 0.00
			CHANNELS 3 Zrotation Xrotation Yrotation
			End Site
			{
				OFFSET 0.00 0.1379 0.00
			}
		}
		JOINT RightShoulder
		{
			OFFSET 0.0119 0.2289 0.1181
			CHANNELS 3 Zrotation Xrotation Yrotation
			JOINT RightElbow
			{
				OFFSET 0.00 -0.1475 0.00
				CHANNELS 2 Zrotation Yrotation
				JOINT RightWrist
				{
					OFFSET 0.00 -0.1605 0.00
					CHANNELS 2 Zrotation Xrotation
					End Site
					{
						OFFSET 0.0040 -0.1068 0.0006
					}
				}
			}
		}
		JOINT LeftShoulder
		{
			OFFSET 0.0119 0.2289 -0.1181
			CHANNELS 3 Zrotation Xrotation Yrotation
			JOINT LeftElbow
			{
				OFFSET 0.00 -0.1475 0.00
				CHANNELS 2 Zrotation Yrotation
				JOINT LeftWrist
				{
					OFFSET 0.00 -0.1605 0.00
					CHANNELS 2 Zrotation Xrotation
					End Site
					{
						OFFSET 0.0040 -0.1068 -0.0006
					}
				}
			}
		}
	}
	JOINT RightHip
	{
		OFFSET 0.0316 -0.0424 0.0458
		CHANNELS 3 Zrotation Xrotation Yrotation
		JOINT RightKnee
		{
			OFFSET 0.00 -0.2438 0.00
			CHANNELS 1 Zrotation
			JOINT RightAnkle
			{
				OFFSET 0.00 -0.2449 0.00
				CHANNELS 3 Zrotation Xrotation Yrotation
				End Site
				{
					OFFSET 0.1237 -0.0542 0.0051
				}
			}
		}
	}
	JOINT LeftHip
	{
		OFFSET 0.0316 -0.0424 -0.0458
		CHANNELS 3 Zrotation Xrotation Yrotation
		JOINT LeftKnee
		{
			OFFSET 0.00 -0.2438 0.00
			CHANNELS 1 Zrotation
			JOINT LeftAnkle
			{
				OFFSET 0.00 -0.2449 0.00
				CHANNELS 3 Zrotation Xrotation Yrotation
				End Site
				{
					OFFSET 0.1237 -0.0542 -0.0051
				}
			}
		}
	}
}
MOTION
Frames: 16
Frame Time: 0.02
-0.4037 -0.26947 0.07919 741.52056 -6.93572 -6.02719 19.43421 3.24636 -5.58335 -13.72024 7.11262 -0.83079 0.29546 -20.34236 1.04304 115.51628 73.64404 -8.15728 1.79554 -19.24726 12.55824 1.74594 106.49781 -83.65102 0.41632 0.95617 88.78319 -9.29013 -13.2156 -75.68737 -8.01714 -3.76678 -2.65754 92.51386 4.74484 5.44958 -76.30132 -9.73082 3.35688 2.53609
-0.40371 -0.26966 0.07931 741.52259 -6.5694 -5.99851 19.80973 3.20735 -5.63774 -14.07071 6.87568 -0.83079 -0.67862 -19.47416 1.10242 115.4341 73.72226 -8.29766 2.03938 -19.6561 12.32278 1.91852 106.34028 -83.30291 0.41926 1.1667 88.43482 -9.17442 -13.07055 -75.79561 -7.9398 -3.68884 -2.61473 92.13037 4.7053 5.32062 -76.25961 -9.81771 3.30464 2.5104
-0.40368 -0.26983 0.07944 741.51752 -6.21755 -5.97051 20.17963 3.1686 -5.67767 -14.44506 6.64515 -0.83079 -1.53628 -18.61794 1.18885 115.29991 73.71521 -8.47198 2.33468 -20.07616 12.09778 2.07725 106.18524 -83.47676 0.48481 1.05416 88.10834 -9.01416 -12.88093 -75.8921 -7.87746 -3.59638 -2.5665 91.76003 4.60197 5.11043 -76.18417 -9.95284 3.26017 2.4915
-0.40367 -0.27001 0.07956 741.51695 -5.85981 -5.94326 20.54641 3.13022 -5.72313 -14.80564 6.41572 -0.83079 -2.44144 -17.7576 1.25423 115.18943 73.73976 -8.63246 2.58144 -20.48516 11.86824 2.24032 106.02628 -83.41696 0.51831 1.07928 87.77205 -8.87599 -12.71602 -75.98576 -7.81507 -3.51272 -2.5221 91.38454 4.52467 4.93672 -76.11795 -10.07313 3.21298 2.47032
-0.40364 -0.27018 0.07968 741.51099 -5.49993 -5.91143 20.93821 3.08976 -5.7732 -15.18108 6.16821 -0.83079 -3.36627 -16.89039 1.361 115.07758 73.79244 -8.78806 2.93349 -20.91941 11.63791 2.41109 105.87703 -83.32368 0.5645 1.15226 87.43605 -8.73015 -12.53215 -76.11398 -7.7246 -3.4192 -2.47165 91.00568 4.4598 4.76512 -76.07416 -10.16779 3.16127 2.44533
-0.40364 -0.27037 0.07981 741.51451 -5.1479 -5.88941 21.27549 3.05386 -5.81002 -15.52962 5.96071 -0.83079 -4.22282 -16.04217 1.3863 114.95638 73.772 -8.95974 3.07976 -21.30328 11.41163 2.56232 105.70916 -83.42875 0.60008 1.04731 87.10477 -8.5885 -12.37596 -76.16748 -7.69587 -3.3433 -2.43279 90.63706 4.35489 4.57113 -75.97746 -10.32449 3.1213 2.43004
-0.40376 -0.27064 0.07995 741.54666 -4.81129 -5.89357 21.47185 3.02858 -5.81554 -15.80592 5.85719 -0.83079 -4.9298 -15.22685 1.17995 114.82528 73.5078 -9.18591 2.63369 -21.55072 11.19481 2.66823 105.48711 -83.98461 0.59131 0.504 86.77569 -8.48399 -12.32355 -76.01648 -7.83531 -3.31551 -2.42514 90.29198 4.14294 4.31748 -75.7361 -10.65514 3.11096 2.43997
-0.40391 -0.27092 0.08008 741.58848 -4.48259 -5.90773 21.612 3.00818 -5.80795 -16.05254 5.79471 -0.83079 -5.57056 -14.43327 0.89013 114.68618 73.18282 -9.42388 1.98124 -21.74636 10.98174 2.75413 105.24722 -84.7196 0.57012 -0.20468 86.45151 -8.38299 -12.29808 -75.79088 -8.03597 -3.3067 -2.42973 89.95717 3.89489 4.0469 -75.44428 -11.04349 3.11245 2.45947
-0.40405 -0.27119 0.08021 741.6254 -4.15173 -5.9178 21.77242 2.98685 -5.80514 -16.30742 5.71673 -0.83079 -6.23557 -13.6406 0.63787 114.54884 72.92798 -9.64409 1.43032 -21.96192 10.76617 2.84593 105.01681 -85.35511 0.55467 -0.8213 86.1284 -8.27055 -12.24922 -75.60006 -8.2078 -3.29199 -2.43018 89.61844 3.6713 3.79571 -75.1804 -11.39548 3.10925 2.47461
-0.40417 -0.27147 0.08036 741.66417 -3.81475 -5.92598 21.95482 2.96028 -5.80653 -16.58551 5.62563 -0.83079 -6.92178 -12.80289 0.38795 114.41755 72.49623 -9.91688 0.84702 -22.19218 10.55355 2.95071 104.7794 -86.08374 0.54052 -1.5175 85.79188 -8.19677 -12.24423 -75.40505 -8.38482 -3.26546 -2.42454 89.27637 3.41199 3.49329 -74.89421 -11.79186 3.10346 2.49004
-0.40435 -0.27175 0.08048 741.70149 -3.49297 -5.94046 22.0783 2.94558 -5.79658 -16.80758 5.57159 -0.83079 -7.54878 -12.0639 0.1133 114.27251 72.41271 -10.08371 0.28337 -22.38061 10.33651 3.02386 104.55389 -86.65551 0.52047 -2.08662 85.4845 -8.04553 -12.15688 -75.20131 -8.56485 -3.26797 -2.43442 88.94433 3.21871 3.2934 -74.64288 -12.10903 3.10572 2.507
-0.40465 -0.27205 0.08051 741.73227 -3.20456 -5.96989 22.05157 2.96404 -5.75577 -16.88456 5.60935 -0.83079 -8.03661 -11.5933 -0.21235 114.0916 73.36366 -9.94463 -0.1914 -22.45471 10.09801 3.0149 104.3514 -86.73649 0.48203 -2.22961 85.2534 -7.66588 -11.81857 -74.99084 -8.74265 -3.34867 -2.48546 88.63061 3.22243 3.39188 -74.50141 -12.19122 3.12781 2.52621
-0.405 -0.27235 0.08052 741.76131 -2.93233 -6.00531 21.96769 2.99398 -5.70459 -16.90565 5.68301 -0.83079 -8.46627 -11.22117 -0.55956 113.89765 74.6556 -9.70042 -0.63608 -22.49006 9.85651 2.97477 104.16372 -86.65276 0.43871 -2.24182 85.05185 -7.21098 -11.39996 -74.7745 -8.92044 -3.45755 -2.55151 88.32783 3.29324 3.59268 -74.39683 -12.19181 3.15745 2.54651
-0.40533 -0.27265 0.08055 741.79128 -2.65704 -6.03801 21.91093 3.01764 -5.66 -16.95063 5.74059 -0.83079 -8.91777 -10.80304 -0.89502 113.70952 75.75521 -9.51082 -1.08499 -22.55129 9.62168 2.94879 103.97912 -86.65174 0.40073 -2.33773 84.83865 -6.79963 -11.02932 -74.56137 -9.09526 -3.55182 -2.60988 88.02455 3.32958 3.73945 -74.27462 -12.23097 3.18334 2.56606
-0.40567 -0.27298 0.08056 741.82099 -2.36401 -6.07111 21.84767 3.046 -5.60698 -17.00085 5.7988 -0.83079 -9.3861 -10.39044 -1.24166 113.52046 77.01503 -9.29217 -1.58295 -22.57797 9.36424 2.92229 103.75426 -86.62688 0.34927 -2.34567 84.61831 -6.34867 -10.61066 -74.34291 -9.28487 -3.65422 -2.67226 87.70292 3.38073 3.91644 -74.15385 -12.26607 3.2111 2.58707
-0.40599 -0.27325 0.08059 741.8507 -2.11153 -6.1046 21.78471 3.06718 -5.5693 -17.02742 5.86345 -0.83079 -9.80668 -9.99007 -1.56897 113.33168 78.01715 -9.10967 -1.96642 -22.66537 9.15357 2.88957 103.61477 -86.60672 0.32475 -2.49293 84.41956 -5.96259 -10.27323 -74.13563 -9.44279 -3.7463 -2.72972 87.42177 3.41831 4.05618 -74.04004 -12.28927 3.23649 2.6051
